<?xml version="1.0" encoding="utf-8"?>
<!-- Generator: Adobe Illustrator 20.1.0, SVG Export Plug-In . SVG Version: 6.00 Build 0)  -->
<svg version="1.1" id="Layer_1" xmlns="http://www.w3.org/2000/svg" xmlns:xlink="http://www.w3.org/1999/xlink" x="0px" y="0px"
	 viewBox="0 0 291.8 70.4" style="enable-background:new 0 0 291.8 70.4;" xml:space="preserve">
<style type="text/css">
	.st0{fill:#FFFFFF;}
</style>
<g>
	<path class="st0" d="M72.2,32.7h-5H47.4H34.7v14.7h11.5v3.1c-1.7,1-3.8,1.5-7.7,1.5c-9.4,0-16-6.5-16-16v-0.2
		c0-7.6,4.4-13.6,11-15.3v0h30.5l-13.3-20H33.6v0.1C14.1,2.2,0,16.6,0,35.5v0.2c0,20.8,16.7,34.7,37.6,34.7c12.2,0,22.3-4.1,29.6-10
		v-13H82L72.2,32.7z"/>
	<path class="st0" d="M268.9,33.1L290.8,0h-25.2l-9.9,16.1l-9.5-15.8V0H246h-25.7h-30.6v32.7h-6.1h-3.2l6.2,14.7h3.2v20L161.6,0.2
		h-22.2L117,53.7l-6-8.8c8.1-3.9,13.2-10.7,13.2-20.5v-0.2c0-6.9-2.1-11.9-6.1-15.9c-4.7-4.7-12.3-7.7-24.1-7.7H76.2V0.6h-9H56.5
		l44.7,67.1h23.5h2h8.5l0.4-1l8.7-23.9h0l0.9-2.4l2.6-7l0.1,0l2.6-6.9l3.9,10.4l0,0l2.1,5.9l3.6,10h-14.4l-5.4,14.8l25.4,0h24.3
		l22.4-0.1V47.4h8.2l6.7,0l9.9-14.7h-16.6h-8.2v-4.8v-8.6H233l9.2,14l-0.1,0.1l0,0l-6,8.9l-16.9,25.4h25.2l10.8-17.6l10.7,17.6h25.7
		L268.9,33.1z M101.9,26c0,4.1-3.3,6.5-8.6,6.5h-9.7V19.4h9.8c5.2,0,8.5,2.1,8.5,6.4V26z"/>
</g>
</svg>
