<?xml version="1.0" encoding="utf-8"?>
<!-- Generator: Adobe Illustrator 20.1.0, SVG Export Plug-In . SVG Version: 6.00 Build 0)  -->
<svg version="1.1" id="Layer_1" xmlns="http://www.w3.org/2000/svg" xmlns:xlink="http://www.w3.org/1999/xlink" x="0px" y="0px"
	 viewBox="0 0 55.5 55.5" style="enable-background:new 0 0 55.5 55.5;" xml:space="preserve">
<style type="text/css">
	.st0{fill:#FFFFFF;}
</style>
<path class="st0" d="M40.3,35.1c0.9,0.9,1.7,1.7,2.5,2.5c3.8,3.8,7.7,7.7,11.5,11.5c1.8,1.8,1.4,4.7-0.8,5.9
	c-1.5,0.8-3.2,0.6-4.5-0.7c-3.2-3.2-6.3-6.3-9.5-9.5c-1.5-1.5-3-3-4.5-4.5c-5.8,3.9-12.1,5.1-18.9,3.2c-5.2-1.5-9.4-4.5-12.4-9
	c-6-9-4.6-20.8,2.9-28.1C14.9-1.7,27.4-2,36.1,4.9C44.7,11.7,47.5,24.9,40.3,35.1z M22.2,37C30.3,37,37,30.4,37,22.2
	c0-8.2-6.6-14.8-14.7-14.9C14.1,7.4,7.4,14,7.4,22.2C7.4,30.3,14,37,22.2,37z"/>
</svg>
